<svg width="24" height="24" viewBox="0 0 24 24" fill="none" xmlns="http://www.w3.org/2000/svg">
<g clip-path="url(#clip0_1_119)">
<path d="M23.9238 15.24L23.6943 14.4585C23.6213 14.2101 23.3608 14.0677 23.1124 14.1409L22.07 14.4471L15.8328 3.74145H17.7168C17.9757 3.74145 18.1856 3.53159 18.1856 3.2727V3.00092C18.1856 1.38964 16.8747 0.0787354 15.2634 0.0787354H8.70785C7.09657 0.0787354 5.78566 1.38959 5.78566 3.00092V3.2727C5.78566 3.53159 5.99557 3.74145 6.25441 3.74145H8.16705L1.92996 14.4471L0.887552 14.1409C0.639349 14.0679 0.378677 14.2101 0.305692 14.4585L0.0760986 15.24C-0.214855 16.2304 0.354208 17.2729 1.34458 17.5639C1.51938 17.6153 1.69765 17.6407 1.87488 17.6407C2.18411 17.6407 2.49025 17.5632 2.76921 17.411C3.20815 17.1714 3.5275 16.7752 3.66846 16.2955L3.89805 15.514C3.93307 15.3947 3.91929 15.2664 3.85975 15.1572C3.80022 15.0481 3.69972 14.9671 3.58043 14.9321L2.85644 14.7194L8.04611 5.81159L6.65894 13.4643L5.87833 13.3454C5.75547 13.3266 5.63008 13.3575 5.52996 13.4312C5.42979 13.5049 5.36304 13.6153 5.34433 13.7382L5.22944 14.4925C5.15772 14.9634 5.27365 15.4341 5.55593 15.8178C5.83816 16.2015 6.253 16.4524 6.72391 16.5241C6.8149 16.5379 6.90588 16.5448 6.99625 16.5448C7.37346 16.5448 7.73965 16.4253 8.04921 16.1976C8.43293 15.9153 8.68376 15.5005 8.75543 15.0296L8.87032 14.2753C8.90932 14.0194 8.73344 13.7803 8.4775 13.7413L7.58613 13.6055L9.37422 3.74145H9.82558L10.0593 13.2065C10.0593 13.2066 10.0593 13.2067 10.0593 13.2069L10.0929 14.5664L10.2146 19.4961H9.42888C8.51004 19.4961 7.76257 20.2436 7.76257 21.1624V21.2565H5.99936C5.16733 21.2565 4.49041 21.9334 4.49041 22.7655V22.9837H2.83933C2.58049 22.9837 2.37058 23.1936 2.37058 23.4525C2.37058 23.7114 2.58049 23.9212 2.83933 23.9212H4.95911H19.0122H21.132C21.3909 23.9212 21.6008 23.7114 21.6008 23.4525C21.6008 23.1936 21.3909 22.9837 21.132 22.9837H19.481V22.7655C19.481 21.9335 18.8041 21.2565 17.972 21.2565H16.2374V21.1624C16.2374 20.2436 15.49 19.4961 14.5711 19.4961H13.7568L14.1459 3.74145H14.6258L16.4139 13.6055L15.5225 13.7413C15.2666 13.7803 15.0907 14.0194 15.1297 14.2753L15.2446 15.0296C15.3163 15.5005 15.5672 15.9153 15.9508 16.1976C16.2604 16.4253 16.6265 16.5448 17.0038 16.5448C17.0942 16.5448 17.1851 16.5379 17.2761 16.5241C17.747 16.4524 18.1619 16.2015 18.4441 15.8178C18.7263 15.4341 18.8423 14.9634 18.7706 14.4925L18.6557 13.7382C18.637 13.6153 18.5703 13.5049 18.4701 13.4312C18.3699 13.3576 18.2445 13.3267 18.1217 13.3454L17.3411 13.4643L15.9539 5.81159L21.1436 14.7194L20.4196 14.9321C20.3003 14.9672 20.1999 15.0481 20.1403 15.1572C20.0807 15.2664 20.067 15.3947 20.102 15.514L20.3316 16.2954C20.4725 16.7752 20.7918 17.1714 21.2308 17.4109C21.5098 17.5632 21.8159 17.6406 22.1252 17.6406C22.3024 17.6406 22.4807 17.6152 22.6555 17.5639H22.6554C23.6457 17.2729 24.2148 16.2305 23.9238 15.24ZM2.86643 15.6994L2.76893 16.0312C2.69857 16.2707 2.53919 16.4684 2.32005 16.5881C2.10091 16.7077 1.84835 16.7348 1.60886 16.6644C1.60882 16.6644 1.60882 16.6644 1.60882 16.6644C1.11443 16.5191 0.830364 15.9987 0.975583 15.5043L1.07304 15.1725L1.906 15.4173C1.90633 15.4174 1.90661 15.4177 1.90694 15.4179C1.97435 15.4571 2.04752 15.4768 2.12036 15.4802L2.86643 15.6994ZM7.87291 14.5975L7.82861 14.8884C7.79458 15.1118 7.67561 15.3085 7.49365 15.4424C7.31168 15.5763 7.08836 15.6311 6.8651 15.5973C6.64169 15.5632 6.445 15.4443 6.31113 15.2623C6.17725 15.0803 6.12227 14.8571 6.15625 14.6337L6.20055 14.3428L7.87291 14.5975ZM14.5711 20.4337C14.9729 20.4337 15.2999 20.7606 15.2999 21.1624V21.2566H15.2031C14.9443 21.2566 14.7344 21.4664 14.7344 21.7253C14.7344 21.772 14.7414 21.817 14.7541 21.8595C14.8119 22.053 14.9909 22.1941 15.2031 22.1941H16.2374H17.972C18.2871 22.1941 18.5435 22.4504 18.5435 22.7656V22.9838H5.42782V22.7656C5.42782 22.4504 5.68418 22.1941 5.99927 22.1941H7.76247H11.453C11.6652 22.1941 11.8443 22.053 11.902 21.8595C11.9147 21.817 11.9217 21.772 11.9217 21.7253C11.9217 21.4664 11.7118 21.2566 11.453 21.2566H8.69997V21.1624C8.69997 20.7606 9.02693 20.4337 9.42879 20.4337H10.695H13.2762H14.5711ZM11.0643 15.9264L11.0192 14.1041L11.0068 13.6028L12.9711 13.3336L12.9134 15.6731L11.0643 15.9264ZM12.8899 16.6225L12.8189 19.4962H11.1523L11.0874 16.8695L12.8899 16.6225ZM10.9835 12.6597L10.9264 10.3461L13.0521 10.0548L12.9946 12.3841L10.9835 12.6597ZM10.9031 9.4031L10.8458 7.07947L13.1333 6.76597L13.0756 9.10535L10.9031 9.4031ZM10.8225 6.13639L10.7634 3.74145H13.208L13.1568 5.81642L10.8225 6.13639ZM13.6885 2.80395H10.2828H8.9719C8.97185 2.80395 8.9718 2.80395 8.97175 2.80395H6.73296C6.83215 1.80172 7.68002 1.01623 8.70794 1.01623H15.2635C16.2914 1.01623 17.1393 1.80167 17.2385 2.80395H13.6885ZM17.7995 14.3427L17.8438 14.6337C17.8778 14.8571 17.8228 15.0803 17.6889 15.2623C17.555 15.4443 17.3583 15.5632 17.1349 15.5973C16.9115 15.6312 16.6884 15.5763 16.5064 15.4424C16.3244 15.3085 16.2054 15.1118 16.1714 14.8884L16.1271 14.5975L17.7995 14.3427ZM22.3911 16.6644C22.1516 16.7348 21.899 16.7076 21.6798 16.5881C21.4607 16.4685 21.3013 16.2707 21.231 16.0312L21.1335 15.6994L21.8795 15.4803C21.9524 15.4768 22.0256 15.4571 22.093 15.4179C22.0933 15.4177 22.0936 15.4175 22.0939 15.4173L22.9269 15.1726L23.0243 15.5043C23.1696 15.9987 22.8855 16.5191 22.3911 16.6644Z" fill="white"/>
<path d="M13.1489 21.2927C13.1203 21.3044 13.0931 21.3189 13.0678 21.3358C13.042 21.3527 13.0181 21.3724 12.9966 21.3939C12.975 21.4155 12.9553 21.4394 12.9384 21.4652C12.9216 21.4905 12.907 21.5177 12.8953 21.5463C12.8836 21.5744 12.8747 21.6039 12.8686 21.6339C12.8625 21.6639 12.8593 21.6949 12.8593 21.7253C12.8593 21.7558 12.8625 21.7868 12.8686 21.8168C12.8716 21.8312 12.8752 21.8455 12.8794 21.8596C12.884 21.8748 12.8892 21.8898 12.8953 21.9045C12.907 21.933 12.9216 21.9602 12.9384 21.9856C12.9553 22.0113 12.975 22.0352 12.9966 22.0568C13.0181 22.0784 13.042 22.098 13.0678 22.1154C13.0931 22.1323 13.1203 22.1468 13.1489 22.1585C13.177 22.1702 13.2066 22.1791 13.2366 22.1852C13.2666 22.1913 13.2975 22.1941 13.328 22.1941C13.3584 22.1941 13.3894 22.1913 13.4198 22.1852C13.4494 22.1791 13.4789 22.1702 13.5075 22.1585C13.5356 22.1468 13.5628 22.1323 13.5881 22.1154C13.6139 22.098 13.6378 22.0784 13.6594 22.0568C13.6809 22.0352 13.7007 22.0113 13.718 21.9856C13.7348 21.9602 13.7494 21.933 13.7611 21.9045C13.7672 21.8898 13.7724 21.8748 13.777 21.8596C13.7812 21.8455 13.7848 21.8312 13.7878 21.8168C13.7939 21.7868 13.7967 21.7558 13.7967 21.7253C13.7967 21.6949 13.7938 21.6639 13.7878 21.6339C13.7817 21.6039 13.7728 21.5744 13.7611 21.5463C13.7494 21.5177 13.7348 21.4905 13.718 21.4652C13.7007 21.4394 13.6809 21.4155 13.6594 21.3939C13.6378 21.3724 13.6139 21.3527 13.5881 21.3358C13.5628 21.3189 13.5356 21.3044 13.5075 21.2927C13.4789 21.281 13.4494 21.2721 13.4198 21.266C13.3594 21.2538 13.297 21.2538 13.2366 21.266C13.2066 21.2721 13.177 21.281 13.1489 21.2927Z" fill="white"/>
</g>
<defs>
<clipPath id="clip0_1_119">
<rect width="24" height="24" fill="white"/>
</clipPath>
</defs>
</svg>
