<svg width="16" height="16" viewBox="0 0 16 16" fill="none" xmlns="http://www.w3.org/2000/svg">
<path d="M12.4939 5.88017C12.6871 5.88017 12.8736 5.90961 13.0491 5.96411L14.6486 4.3647L13.9031 3.61926L11.6422 5.88017H12.4939Z" fill="#4E2E8A"/>
<path d="M15.7254 5.44159L15.3114 5.02759L13.8629 6.47603C14.1764 6.81131 14.3688 7.26106 14.3688 7.75515V8.12396L15.7254 6.7674C16.0915 6.40131 16.0915 5.80771 15.7254 5.44159Z" fill="#4E2E8A"/>
<path d="M13.2402 2.95641L10.5584 0.274594C10.1923 -0.0915312 9.59867 -0.0915312 9.23258 0.274594L3.62695 5.88022H10.3164L13.2402 2.95641Z" fill="#4E2E8A"/>
<path d="M2.46045 9.78955H3.88864V10.8437H2.46045V9.78955Z" fill="#4E2E8A"/>
<path d="M12.4939 6.81775H0.9375C0.419719 6.81775 0 7.23747 0 7.75525V15.0625C0 15.5803 0.419719 16 0.9375 16H12.4939C13.0116 16 13.4314 15.5803 13.4314 15.0625V7.75525C13.4314 7.23747 13.0116 6.81775 12.4939 6.81775ZM1.52294 8.85203H4.82613V11.7812H1.52294V8.85203ZM3.34672 13.9657H1.49378V13.0282H3.34672V13.9657ZM6.21031 13.9657H4.35738V13.0282H6.21031V13.9657ZM9.07397 13.9657H7.22103V13.0282H9.07397V13.9657ZM11.9376 13.9657H10.0847V13.0282H11.9376V13.9657Z" fill="#4E2E8A"/>
</svg>
