<svg width="16" height="16" viewBox="0 0 16 16" fill="none" xmlns="http://www.w3.org/2000/svg">
<path d="M8.46875 10.2796C9.00766 10.1472 9.40625 9.80034 9.40625 9.40168C9.40625 9.00302 9.00766 8.65615 8.46875 8.5238V10.2796Z" fill="#4E2E8A"/>
<path d="M8 2.84375C5.15684 2.84375 2.84375 5.15684 2.84375 8C2.84375 10.8432 5.15684 13.1562 8 13.1562C10.8432 13.1562 13.1562 10.8432 13.1562 8C13.1562 5.15684 10.8432 2.84375 8 2.84375ZM10.3438 9.40169C10.3438 10.3073 9.53722 11.0646 8.46875 11.2388V11.75C8.46875 12.0091 8.25909 12.2188 8 12.2188C7.74091 12.2188 7.53125 12.0091 7.53125 11.75V11.2388C6.46278 11.0646 5.65625 10.3073 5.65625 9.40169C5.65625 9.14259 5.86591 8.93294 6.125 8.93294C6.38409 8.93294 6.59375 9.14259 6.59375 9.40169C6.59375 9.80034 6.99234 10.1472 7.53125 10.2796V8.42625C6.46278 8.25206 5.65625 7.49481 5.65625 6.58919C5.65625 5.68356 6.46278 4.92631 7.53125 4.75212V4.24544C7.53125 3.98634 7.74091 3.77669 8 3.77669C8.25909 3.77669 8.46875 3.98634 8.46875 4.24544V4.75212C9.53722 4.92631 10.3438 5.68356 10.3438 6.58919C10.3438 6.84828 10.1341 7.05794 9.875 7.05794C9.61591 7.05794 9.40625 6.84828 9.40625 6.58919C9.40625 6.19053 9.00766 5.84366 8.46875 5.71131V7.56462C9.53722 7.73878 10.3438 8.49603 10.3438 9.40169Z" fill="#4E2E8A"/>
<path d="M7.53125 5.7113C6.99234 5.84365 6.59375 6.19052 6.59375 6.58918C6.59375 6.98783 6.99234 7.33471 7.53125 7.46705V5.7113Z" fill="#4E2E8A"/>
<path d="M8 0C3.60594 0 0 3.60594 0 8C0 12.3941 3.60594 16 8 16C12.3941 16 16 12.3941 16 8C16 3.60594 12.3941 0 8 0ZM8 14.0938C4.64 14.0938 1.90625 11.36 1.90625 8C1.90625 4.64 4.64 1.90625 8 1.90625C11.36 1.90625 14.0938 4.64 14.0938 8C14.0938 11.36 11.36 14.0938 8 14.0938Z" fill="#4E2E8A"/>
</svg>
