<svg width="16" height="16" viewBox="0 0 16 16" fill="none" xmlns="http://www.w3.org/2000/svg">
<path d="M7.99976 0C3.58165 0 0 3.58175 0 7.99987C0 12.4178 3.58165 16 7.99971 16C12.4178 16 15.9998 12.418 15.9998 7.99987C15.9996 3.58175 12.4179 0 7.99976 0ZM12.5683 9.00369C12.208 11.2933 10.2249 12.9323 7.97629 12.9323C7.73699 12.9323 7.49481 12.9136 7.25108 12.8754C4.71795 12.4762 2.98112 10.0907 3.37952 7.55779C3.57263 6.33056 4.23204 5.25191 5.23623 4.52072C6.10075 3.89135 7.13156 3.58511 8.18477 3.63503L7.41001 2.89723L7.91779 2.36439L9.10657 3.49711L9.10683 3.49696L9.63856 4.00431L9.13121 4.53715L9.13094 4.53672L7.99832 5.72577L7.46606 5.21799L8.1837 4.46537C7.30601 4.41555 6.4448 4.66744 5.7247 5.1917C4.8996 5.79244 4.3579 6.67856 4.19924 7.68681C3.8721 9.76778 5.29906 11.7277 7.38014 12.0555C9.46112 12.3825 11.4209 10.956 11.7483 8.87473C11.9645 7.50089 11.4163 6.11638 10.3172 5.26141L10.827 4.60643C12.1641 5.64668 12.8314 7.33161 12.5683 9.00369ZM6.45824 9.3568L6.43099 9.29302L7.11487 9.0031L7.14185 9.067C7.2506 9.32512 7.62654 9.51973 8.01619 9.51973C8.19133 9.51973 8.76257 9.48779 8.76257 9.075C8.76257 8.85879 8.51831 8.72935 7.99379 8.66748C7.40521 8.60151 6.5985 8.51132 6.5985 7.62286C6.5985 7.07812 7.00602 6.69733 7.69224 6.59594V6.17723H8.42935V6.59776C8.74791 6.65376 9.16827 6.79253 9.40272 7.27209L9.43387 7.33556L8.80433 7.62675L8.77249 7.57379C8.66226 7.39177 8.33799 7.24889 8.03469 7.24889C7.83011 7.24889 7.35444 7.28542 7.35444 7.62281C7.35444 7.86531 7.66094 7.92115 8.06184 7.96915C8.6886 8.04632 9.54661 8.15202 9.54661 9.07489C9.54661 9.75408 8.9958 10.1116 8.42951 10.175V10.6525H7.69256V10.1979C7.09791 10.128 6.66074 9.83072 6.45824 9.3568Z" fill="#E00303"/>
</svg>
