<svg width="16" height="16" viewBox="0 0 16 16" fill="none" xmlns="http://www.w3.org/2000/svg">
<path d="M6.66666 5.00003C6.66666 4.82203 6.596 4.65138 6.46866 4.52603L5.43066 3.50003L6.46866 2.47403C6.66066 2.28403 6.71931 1.99669 6.61666 1.74669C6.514 1.49669 6.27 1.33337 6 1.33337H0.666656C0.298 1.33337 0 1.63203 0 2.00003V14C0 14.368 0.298 14.6667 0.666656 14.6667H6C6.27 14.6667 6.514 14.5034 6.61666 14.2534C6.71931 14.0034 6.66066 13.716 6.46866 13.526L5.43066 12.5L6.46866 11.474C6.596 11.3487 6.66666 11.178 6.66666 11C6.66666 10.822 6.596 10.6514 6.46866 10.526L5.43066 9.50004L6.46866 8.47403C6.596 8.34869 6.66666 8.17803 6.66666 8.00003C6.66666 7.82203 6.596 7.65138 6.46866 7.52603L5.43066 6.50003L6.46866 5.47403C6.596 5.34869 6.66666 5.17803 6.66666 5.00003Z" fill="#4E2E8A"/>
<path d="M15.3333 1.33337H10.85C10.6746 1.33337 10.5066 1.40272 10.3813 1.52603L8.86466 3.02603C8.73731 3.15138 8.66666 3.32203 8.66666 3.50003C8.66666 3.67803 8.73731 3.84869 8.86466 3.97403L9.90263 5.00003L8.86463 6.02603C8.73728 6.15138 8.66663 6.32203 8.66663 6.50003C8.66663 6.67803 8.73728 6.84869 8.86463 6.97403L9.90263 8.00003L8.86463 9.02604C8.73728 9.15138 8.66663 9.32204 8.66663 9.50004C8.66663 9.67804 8.73728 9.84869 8.86463 9.97404L9.90263 11L8.86463 12.026C8.73728 12.1514 8.66663 12.322 8.66663 12.5C8.66663 12.678 8.73728 12.8487 8.86463 12.974L10.3813 14.474C10.5066 14.5974 10.6746 14.6667 10.8499 14.6667H15.3333C15.7019 14.6667 15.9999 14.368 15.9999 14V2.00003C16 1.63203 15.702 1.33337 15.3333 1.33337Z" fill="#4E2E8A"/>
</svg>
