<svg width="14" height="10" viewBox="0 0 14 10" fill="none" xmlns="http://www.w3.org/2000/svg">
<path d="M12.4939 0.817749H0.9375C0.419719 0.817749 0 1.23747 0 1.75525V9.06254C0 9.58033 0.419719 10 0.9375 10H12.4939C13.0116 10 13.4314 9.58033 13.4314 9.06254V1.75525C13.4314 1.23747 13.0116 0.817749 12.4939 0.817749ZM1.52294 2.85203H4.82613V5.78123H1.52294V2.85203ZM3.34672 7.96573H1.49378V7.02823H3.34672V7.96573ZM6.21031 7.96573H4.35738V7.02823H6.21031V7.96573ZM9.07397 7.96573H7.22103V7.02823H9.07397V7.96573ZM11.9376 7.96573H10.0847V7.02823H11.9376V7.96573Z" fill="#4E2E8A"/>
</svg>
