<svg width="24" height="24" viewBox="0 0 24 24" fill="none" xmlns="http://www.w3.org/2000/svg">
<path d="M13.875 21.0097V16.125C13.875 16.0653 13.8608 16.0065 13.8334 15.9534C13.8061 15.9003 13.7665 15.8545 13.718 15.8198L11.093 13.9448C11.0294 13.8994 10.9532 13.875 10.875 13.875H10.8726L8.99756 13.887C8.89853 13.8877 8.80377 13.9275 8.73397 13.9977C8.66417 14.068 8.625 14.163 8.625 14.262V20.4764L6.375 19.6327V17.25C6.375 17.1505 6.33549 17.0552 6.26517 16.9848C6.19484 16.9145 6.09946 16.875 6 16.875H1.5V14.625H6C6.09946 14.625 6.19484 14.5855 6.26517 14.5152C6.33549 14.4448 6.375 14.3495 6.375 14.25V10.875C6.375 10.7755 6.33549 10.6802 6.26517 10.6098C6.19484 10.5395 6.09946 10.5 6 10.5H1.5V8.88253L2.35345 8.5544L2.0842 7.85437L0.990375 8.27507C0.919643 8.30228 0.858813 8.35028 0.815903 8.41274C0.772993 8.47521 0.750016 8.54921 0.75 8.625V18.75H1.5V17.625H5.625V19.6142L1.5 21.5365V19.5H0.75V22.125C0.750003 22.188 0.7659 22.2501 0.796222 22.3053C0.826543 22.3606 0.870311 22.4073 0.923478 22.4412C0.976644 22.4751 1.03749 22.495 1.1004 22.4992C1.16331 22.5033 1.22625 22.4915 1.28339 22.4649L5.96883 20.2814L11.8215 22.4761C11.9061 22.5079 11.9993 22.508 12.084 22.4765L15.128 21.3438L14.8664 20.6407L13.875 21.0097ZM5.625 11.25V13.875H1.5V11.25H5.625ZM11.9536 21.7247L9.375 20.7577V14.6347L10.7559 14.6258L13.125 16.318V21.2888L11.9536 21.7247Z" fill="white"/>
<path d="M22.5 13.5H21.75V14.25H22.5V16.5H21.375V17.25H22.5V21.204L21.0597 20.65L20.7904 21.35L22.7404 22.1C22.7972 22.1219 22.8585 22.1296 22.9189 22.1224C22.9794 22.1153 23.0372 22.0936 23.0873 22.0591C23.1375 22.0247 23.1785 21.9785 23.2069 21.9247C23.2352 21.8708 23.25 21.8109 23.25 21.75V10.5H22.5V13.5Z" fill="white"/>
<path d="M23.0096 8.275L18.1346 6.39999C18.0557 6.36964 17.9689 6.36685 17.8882 6.39207L12 8.23215L9.71184 7.51707L9.48816 8.23295L9.96197 8.38103L8.688 10.292C8.64692 10.3536 8.625 10.426 8.625 10.5V11.625C8.625 11.7245 8.66451 11.8199 8.73483 11.8902C8.80516 11.9605 8.90054 12 9 12H12.75C12.8249 12 12.8982 11.9776 12.9602 11.9355C13.0223 11.8935 13.0704 11.8339 13.0982 11.7643L14.5106 8.23332L17.048 7.44038L16.1382 10.7766L16.8618 10.9739L17.8977 7.17507L17.9872 7.14695L22.5 8.88282V9.75001H23.25V8.62501C23.25 8.54921 23.227 8.47519 23.1841 8.41271C23.1412 8.35022 23.0804 8.30221 23.0096 8.275ZM12.4961 11.25H9.375V10.6135L10.7079 8.61414L11.8882 8.98295C11.961 9.00568 12.039 9.00568 12.1118 8.98295L13.5874 8.52184L12.4961 11.25Z" fill="white"/>
<path d="M3.99614 8.64019C4.5375 8.87222 5.2492 9 6 9C6.7508 9 7.4625 8.87222 8.00386 8.64019C8.87058 8.26875 9 7.76639 9 7.5C9 7.23361 8.87058 6.73125 8.00386 6.35981C7.55358 6.16683 6.98541 6.04598 6.375 6.01073V5.25H10.0312C10.2549 5.24974 10.4694 5.16076 10.6276 5.00258C10.7858 4.84441 10.8747 4.62995 10.875 4.40625V1.875C10.875 1.77554 10.8355 1.68016 10.7652 1.60984C10.6948 1.53951 10.5995 1.5 10.5 1.5H6.46875C6.24505 1.50026 6.03059 1.58924 5.87242 1.74742C5.71424 1.90559 5.62526 2.12005 5.625 2.34375V6.01073C5.01459 6.04598 4.44642 6.16683 3.99614 6.35981C3.12942 6.73125 3 7.23361 3 7.5C3 7.76639 3.12942 8.26875 3.99614 8.64019ZM6.375 2.34375C6.375 2.31889 6.38488 2.29504 6.40246 2.27746C6.42004 2.25988 6.44389 2.25 6.46875 2.25H10.125V4.40625C10.125 4.43111 10.1151 4.45496 10.0975 4.47254C10.08 4.49012 10.0561 4.5 10.0312 4.5H6.375V2.34375ZM5.625 6.76205V7.5H6.375V6.76205C7.5472 6.83841 8.25 7.26019 8.25 7.5C8.25 7.76442 7.39575 8.25 6 8.25C4.60425 8.25 3.75 7.76442 3.75 7.5C3.75 7.26019 4.4528 6.83841 5.625 6.76205Z" fill="white"/>
<path d="M19.4524 18.549C19.5641 18.4202 19.6784 18.2836 19.7928 18.1405C20.8427 16.8281 21.375 15.6454 21.375 14.625C21.375 13.7299 21.0194 12.8715 20.3865 12.2385C19.7536 11.6056 18.8951 11.25 18 11.25C17.1049 11.25 16.2465 11.6056 15.6135 12.2385C14.9806 12.8715 14.625 13.7299 14.625 14.625C14.625 15.6454 15.1573 16.8281 16.2072 18.1406C16.3216 18.2837 16.4359 18.4203 16.5476 18.549C15.5892 18.7982 15 19.2885 15 19.875C15 20.1414 15.1294 20.6438 15.9961 21.0152C16.5375 21.2472 17.2492 21.375 18 21.375C18.7508 21.375 19.4625 21.2472 20.0039 21.0152C20.8706 20.6438 21 20.1414 21 19.875C21 19.2885 20.4108 18.7982 19.4524 18.549ZM15.375 14.625C15.375 13.9288 15.6516 13.2611 16.1438 12.7688C16.6361 12.2766 17.3038 12 18 12C18.6962 12 19.3639 12.2766 19.8562 12.7688C20.3484 13.2611 20.625 13.9288 20.625 14.625C20.625 15.4566 20.1375 16.507 19.2145 17.6628C18.8386 18.1304 18.4329 18.5733 18 18.9886C17.5699 18.576 17.1666 18.1362 16.7928 17.6719C15.8653 16.5126 15.375 15.459 15.375 14.625ZM18 20.625C16.6043 20.625 15.75 20.1394 15.75 19.875C15.75 19.6781 16.2427 19.3356 17.1388 19.1914C17.4878 19.5491 17.7352 19.7666 17.7531 19.782C17.8214 19.8419 17.9092 19.8748 18 19.8748C18.0908 19.8748 18.1786 19.8419 18.2469 19.782C18.2648 19.7664 18.5122 19.5489 18.8612 19.1914C19.7573 19.3356 20.25 19.6781 20.25 19.875C20.25 20.1394 19.3958 20.625 18 20.625Z" fill="white"/>
<path d="M18 16.125C18.2967 16.125 18.5867 16.037 18.8334 15.8722C19.08 15.7074 19.2723 15.4731 19.3858 15.199C19.4994 14.9249 19.5291 14.6233 19.4712 14.3324C19.4133 14.0414 19.2705 13.7741 19.0607 13.5643C18.8509 13.3546 18.5836 13.2117 18.2926 13.1538C18.0017 13.0959 17.7001 13.1256 17.426 13.2392C17.1519 13.3527 16.9176 13.545 16.7528 13.7916C16.588 14.0383 16.5 14.3283 16.5 14.625C16.5004 15.0227 16.6586 15.4039 16.9398 15.6852C17.221 15.9664 17.6023 16.1245 18 16.125ZM18 13.875C18.1483 13.875 18.2933 13.919 18.4167 14.0014C18.54 14.0838 18.6362 14.2009 18.6929 14.338C18.7497 14.475 18.7645 14.6258 18.7356 14.7713C18.7067 14.9168 18.6352 15.0504 18.5303 15.1553C18.4255 15.2602 18.2918 15.3316 18.1463 15.3606C18.0008 15.3895 17.85 15.3747 17.713 15.3179C17.5759 15.2611 17.4588 15.165 17.3764 15.0417C17.294 14.9183 17.25 14.7733 17.25 14.625C17.2502 14.4262 17.3293 14.2355 17.4699 14.0949C17.6105 13.9543 17.8012 13.8752 18 13.875Z" fill="white"/>
</svg>
